<svg width="30" height="30" viewBox="0 0 30 30" fill="none" xmlns="http://www.w3.org/2000/svg">
<path fill-rule="evenodd" clip-rule="evenodd" d="M8.46967 8.46967C8.76256 8.17678 9.23744 8.17678 9.53033 8.46967L15 13.9393L20.4697 8.46967C20.7626 8.17678 21.2374 8.17678 21.5303 8.46967C21.8232 8.76256 21.8232 9.23744 21.5303 9.53033L16.0607 15L21.5303 20.4697C21.8232 20.7626 21.8232 21.2374 21.5303 21.5303C21.2374 21.8232 20.7626 21.8232 20.4697 21.5303L15 16.0607L9.53033 21.5303C9.23744 21.8232 8.76256 21.8232 8.46967 21.5303C8.17678 21.2374 8.17678 20.7626 8.46967 20.4697L13.9393 15L8.46967 9.53033C8.17678 9.23744 8.17678 8.76256 8.46967 8.46967Z" fill="#2C2F31"/>
</svg>
