<svg width="16" height="16" viewBox="0 0 16 16" fill="none" xmlns="http://www.w3.org/2000/svg">
<path fill-rule="evenodd" clip-rule="evenodd" d="M4 1C4 0.447715 4.44772 0 5 0C5.55228 0 6 0.447715 6 1V1.25H10V1C10 0.447715 10.4477 0 11 0C11.5523 0 12 0.447715 12 1V1.25H13C14.5188 1.25 15.75 2.48122 15.75 4V5V12C15.75 13.5188 14.5188 14.75 13 14.75H3C1.48122 14.75 0.25 13.5188 0.25 12V5V4C0.25 2.48122 1.48122 1.25 3 1.25H4V1ZM11 2.75H5H3C2.30964 2.75 1.75 3.30964 1.75 4V4.25H14.25V4C14.25 3.30964 13.6904 2.75 13 2.75H11ZM14.25 5.75H1.75V12C1.75 12.6904 2.30964 13.25 3 13.25H13C13.6904 13.25 14.25 12.6904 14.25 12V5.75ZM6 8C6 8.55228 5.55228 9 5 9C4.44772 9 4 8.55228 4 8C4 7.44772 4.44772 7 5 7C5.55228 7 6 7.44772 6 8ZM9 8C9 8.55228 8.55228 9 8 9C7.44772 9 7 8.55228 7 8C7 7.44772 7.44772 7 8 7C8.55228 7 9 7.44772 9 8ZM11 9C11.5523 9 12 8.55228 12 8C12 7.44772 11.5523 7 11 7C10.4477 7 10 7.44772 10 8C10 8.55228 10.4477 9 11 9ZM6 11C6 11.5523 5.55228 12 5 12C4.44772 12 4 11.5523 4 11C4 10.4477 4.44772 10 5 10C5.55228 10 6 10.4477 6 11ZM8 12C8.55228 12 9 11.5523 9 11C9 10.4477 8.55228 10 8 10C7.44772 10 7 10.4477 7 11C7 11.5523 7.44772 12 8 12ZM12 11C12 11.5523 11.5523 12 11 12C10.4477 12 10 11.5523 10 11C10 10.4477 10.4477 10 11 10C11.5523 10 12 10.4477 12 11Z" fill="#2C2F31"/>
</svg>
