<svg width="16" height="16" viewBox="0 0 16 16" fill="none" xmlns="http://www.w3.org/2000/svg">
<path fill-rule="evenodd" clip-rule="evenodd" d="M1.75 8C1.75 5.10051 4.10051 2.75 7 2.75H9C11.8995 2.75 14.25 5.10051 14.25 8C14.25 10.8995 11.8995 13.25 9 13.25H7C6.482 13.25 5.98278 13.1752 5.51189 13.0363L5.24725 12.9583L2.92571 13.9901L3.50988 11.9455L3.21148 11.6345C2.30558 10.6905 1.75 9.41092 1.75 8ZM7 1.25C3.27208 1.25 0.25 4.27208 0.25 8C0.25 9.65523 0.846612 11.1724 1.83533 12.3463L1.15762 14.7183L2.3339 15.8946L5.36061 14.5494C5.88613 14.6805 6.43543 14.75 7 14.75H9C12.7279 14.75 15.75 11.7279 15.75 8C15.75 4.27208 12.7279 1.25 9 1.25H7ZM5 9C5.55228 9 6 8.55228 6 8C6 7.44772 5.55228 7 5 7C4.44772 7 4 7.44772 4 8C4 8.55228 4.44772 9 5 9ZM9 8C9 8.55228 8.55229 9 8 9C7.44772 9 7 8.55228 7 8C7 7.44772 7.44772 7 8 7C8.55229 7 9 7.44772 9 8ZM11 9C11.5523 9 12 8.55228 12 8C12 7.44772 11.5523 7 11 7C10.4477 7 10 7.44772 10 8C10 8.55228 10.4477 9 11 9Z" fill="#2C2F31" fill-opacity="0.65"/>
</svg>
